<svg width="150" height="150" viewBox="0 0 100 100" xmlns="http://www.w3.org/2000/svg" fill="none" stroke="currentColor" stroke-width="2">
  <!-- Face Outline -->
  <path d="M 50,20 A 30,35 0 1,0 50,90 A 30,35 0 1,0 50,20 Z" stroke-width="2.5" />

  <!-- Hair and Beard -->
  <path d="M 25,45 C 15,65 15,85 25,95" stroke-linecap="round" />
  <path d="M 75,45 C 85,65 85,85 75,95" stroke-linecap="round" />
  <path d="M 30,80 Q 50,100 70,80" stroke-linecap="round" stroke-width="2.5" />
  <path d="M 35,85 Q 50,105 65,85" stroke-linecap="round" />
  <path d="M 40,90 Q 50,110 60,90" stroke-linecap="round" />

  <!-- Top Knot Hair -->
  <path d="M 45,20 A 10,10 0 1,1 55,20 A 15,15 0 0,1 45,20" stroke-width="2.5" />
  <path d="M 50,10 A 5,5 0 1,1 50,20" />

  <!-- Eyebrows -->
  <path d="M 35,48 Q 42,44 50,48" stroke-linecap="round" />
  <path d="M 65,48 Q 58,44 50,48" stroke-linecap="round" />

  <!-- Eyes (closed in contemplation) -->
  <path d="M 38,55 Q 43,58 48,55" stroke-linecap="round" />
  <path d="M 62,55 Q 57,58 52,55" stroke-linecap="round" />

  <!-- Nose -->
  <path d="M 50,50 L 48,65 Q 50,68 52,65 L 50,50" />

  <!-- Moustache -->
  <path d="M 40,70 Q 50,75 60,70" stroke-linecap="round" stroke-width="2" />
  <path d="M 42,72 Q 50,77 58,72" stroke-linecap="round" />

  <!-- Ear -->
  <path d="M 20,55 A 10,15 0 0,0 20,75" stroke-linecap="round" />
  <circle cx="20" cy="65" r="3" fill="currentColor"/>

  <!-- Stylus (Ezhuthani) -->
  <line x1="15" y1="85" x2="5" y2="70" stroke-width="1.5" stroke-linecap="round"/>
  <line x1="5" y1="70" x2="0" y2="75" stroke-width="1.5" stroke-linecap="round"/>
</svg>
